<?xml version="1.0" encoding="UTF-8"?>
<svg width="23px" height="74px" viewBox="0 0 23 74" version="1.1" xmlns="http://www.w3.org/2000/svg" xmlns:xlink="http://www.w3.org/1999/xlink">
    <!-- Generator: Sketch 54.1 (76490) - https://sketchapp.com -->
    <title>11</title>
    <desc>Created with Sketch.</desc>
    <g id="Page-1" stroke="none" stroke-width="1" fill="none" fill-rule="evenodd">
        <g id="11" transform="translate(1.000000, 1.000000)">
            <path d="M1.17647059,53.7429948 C-0.392156863,50.6274589 -0.392156863,35.0497792 1.17647059,7.00995584 C1.52505447,2.33665195 3.09368192,2.92516385e-15 5.88235294,0 C8.67102397,0 10.5882353,2.33665195 11.6339869,7.00995584 C17.211329,31.9342433 20,46.733039 20,51.4063428 C20,58.4162987 3.52941176,58.4162987 1.17647059,53.7429948 Z" id="Path-3" stroke="#DB816E" fill="#FEFDC6"></path>
            <path d="M1.16666667,70.2352941 C-0.388888889,68.6666667 -0.388888889,63.9607843 1.16666667,56.1176471 C2.72222222,46.7058824 5.83333333,42 10.5,42 C15.1666667,42 18.2777778,46.7058824 19.8333333,56.1176471 C21.3888889,63.9607843 21.3888889,68.6666667 19.8333333,70.2352941 C17.5,72.5882353 3.5,72.5882353 1.16666667,70.2352941 Z" id="Path-2" stroke="#A7A7A7" fill="#EDF1F6"></path>
        </g>
    </g>
</svg>