<?xml version="1.0" encoding="UTF-8"?>
<svg width="27px" height="63px" viewBox="0 0 27 63" version="1.1" xmlns="http://www.w3.org/2000/svg" xmlns:xlink="http://www.w3.org/1999/xlink">
    <!-- Generator: Sketch 54.1 (76490) - https://sketchapp.com -->
    <title>16</title>
    <desc>Created with Sketch.</desc>
    <g id="Page-1" stroke="none" stroke-width="1" fill="none" fill-rule="evenodd">
        <g id="16" transform="translate(1.000000, 1.000000)">
            <path d="M1.91666667,3.63157895 C1.91666667,9.68421053 1.85308397e-16,35.9122807 0,41.9649123 C0,46 1.27777778,46 3.83333333,41.9649123 C6.38888889,37.9298246 8.30555556,34.5672515 9.58333333,31.877193 C10.8611111,29.1871345 11.5,29.1871345 11.5,31.877193 L11.5,43.9824561 C11.5,45.3274854 12.1388889,46 13.4166667,46 C15.3333333,46 19.1666667,41.9649123 21.0833333,29.8596491 C22.3611111,21.7894737 23,13.7192982 23,5.64912281 C23,2.95906433 22.3611111,1.61403509 21.0833333,1.61403509 C19.1666667,1.61403509 17.25,5.64912281 13.4166667,5.64912281 C10.8611111,5.64912281 8.30555556,4.30409357 5.75,1.61403509 C3.19444444,-1.07602339 1.91666667,-0.403508772 1.91666667,3.63157895 Z" id="Path-4-Copy-3" stroke="#DB816E" fill="#FEFDC6" transform="translate(11.500000, 23.000000) scale(-1, 1) rotate(180.000000) translate(-11.500000, -23.000000) "></path>
            <path d="M4.34547347,59.6503067 C2.44675685,58.4505794 1.70083247,55.1663258 2.10770031,49.797546 C4.00641693,42.599182 7.80385016,39 13.5,39 C19.1961498,39 22.9935831,42.599182 24.8922997,49.797546 C25.2991675,55.1663258 24.5532431,58.4505794 22.6545265,59.6503067 C19.8064516,61.4498978 7.19354839,61.4498978 4.34547347,59.6503067 Z" id="Path-2-Copy-5" stroke="#979797" fill="#EDF1F6"></path>
        </g>
    </g>
</svg>